<svg width="64" height="64" viewBox="0 0 64 64" fill="none" xmlns="http://www.w3.org/2000/svg">
<path d="M32 60C49.672 60 64 47.464 64 32C64 16.536 49.672 4 32 4C14.328 4 0 16.536 0 32C0 39.04 2.972 45.48 7.88 50.4C7.492 54.464 6.212 58.92 4.796 62.264C4.48 63.008 5.092 63.84 5.888 63.712C14.912 62.232 20.276 59.96 22.608 58.776C25.6716 59.5931 28.8293 60.0046 32 60Z" fill="url(#paint0_linear_4_3)"/>
<g clip-path="url(#clip0_4_3)">
<path d="M36.8766 22.102C37.0234 22.1871 37.137 22.3195 37.1988 22.4775C37.2607 22.6355 37.2671 22.8099 37.2171 22.972L34.5156 31.75H39.5001C39.6465 31.7499 39.7898 31.7928 39.9122 31.8732C40.0347 31.9537 40.1308 32.0682 40.1889 32.2027C40.247 32.3372 40.2644 32.4857 40.239 32.63C40.2136 32.7742 40.1465 32.9079 40.0461 33.0145L28.0461 45.7645C27.9299 45.888 27.7754 45.9685 27.6077 45.9929C27.44 46.0173 27.2689 45.9842 27.1225 45.8989C26.976 45.8137 26.8627 45.6813 26.801 45.5234C26.7394 45.3656 26.7331 45.1914 26.7831 45.0295L29.4846 36.25H24.5001C24.3536 36.2501 24.2103 36.2072 24.0879 36.1268C23.9654 36.0463 23.8693 35.9318 23.8112 35.7973C23.7531 35.6628 23.7357 35.5143 23.7611 35.37C23.7865 35.2258 23.8536 35.0921 23.9541 34.9855L35.9541 22.2355C36.07 22.1122 36.2243 22.0318 36.3918 22.0072C36.5593 21.9827 36.7301 22.0156 36.8766 22.1005V22.102Z" fill="white"/>
</g>
<defs>
<linearGradient id="paint0_linear_4_3" x1="64" y1="4" x2="-5.44071e-06" y2="64" gradientUnits="userSpaceOnUse">
<stop stop-color="#4158D0"/>
<stop offset="0.494792" stop-color="#C850C0"/>
<stop offset="0.494792" stop-color="#C850C0"/>
<stop offset="1" stop-color="#FFCC70"/>
</linearGradient>
<clipPath id="clip0_4_3">
<rect width="24" height="24" fill="white" transform="translate(20 22)"/>
</clipPath>
</defs>
</svg>

